<svg width="64" height="64" viewBox="0 0 64 64" fill="none" xmlns="http://www.w3.org/2000/svg">
<g id="Fav Icon">
<rect width="64" height="64" fill="#1F1F1F"/>
<path id="Vector" d="M42.8159 32.4656C43.159 32.4656 43.4371 32.1875 43.4371 31.8445C43.4371 31.5014 43.159 31.2233 42.8159 31.2233V32.4656ZM27.4846 31.2233C27.1415 31.2233 26.8634 31.5014 26.8634 31.8445C26.8634 32.1875 27.1415 32.4656 27.4846 32.4656V31.2233ZM26.9774 31.4842C26.778 31.7634 26.8428 32.1514 27.122 32.3507C27.4012 32.5501 27.7891 32.4853 27.9884 32.2061L26.9774 31.4842ZM43.3198 10.7336C43.5191 10.4544 43.4544 10.0665 43.1752 9.86715C42.896 9.6678 42.5081 9.73253 42.3087 10.0117L43.3198 10.7336ZM42.1948 48.1191C42.1948 48.4622 42.4729 48.7403 42.8159 48.7403C43.159 48.7403 43.4371 48.4622 43.4371 48.1191H42.1948ZM43.4371 31.9067C43.4371 31.5636 43.159 31.2855 42.8159 31.2855C42.4729 31.2855 42.1948 31.5636 42.1948 31.9067H43.4371ZM15.3517 47.7583C15.1523 48.0375 15.2171 48.4255 15.4963 48.6248C15.7756 48.8241 16.1635 48.7593 16.3628 48.4801L15.3517 47.7583ZM23.7461 37.0676L23.2549 36.6873L23.2475 36.6968L23.2405 36.7067L23.7461 37.0676ZM24.1349 36.5654V35.9442C23.9427 35.9442 23.7614 36.0332 23.6437 36.1851L24.1349 36.5654ZM42.8159 31.2233H27.4846V32.4656H42.8159V31.2233ZM27.9884 32.2061L43.3198 10.7336L42.3087 10.0117L26.9774 31.4842L27.9884 32.2061ZM42.1948 36.5654V48.1191H43.4371V36.5654H42.1948ZM42.1948 31.9067V36.5654H43.4371V31.9067H42.1948ZM16.3628 48.4801L24.2517 37.4284L23.2405 36.7067L15.3517 47.7583L16.3628 48.4801ZM24.1349 37.1866H42.8159V35.9442H24.1349V37.1866ZM24.2372 37.4478L24.626 36.9457L23.6437 36.1851L23.2549 36.6873L24.2372 37.4478Z" fill="white"/>
</g>
</svg>
