<svg width="54" height="54" viewBox="0 0 54 54" fill="none" xmlns="http://www.w3.org/2000/svg">
<g id="&#208;&#155;&#208;&#190;&#208;&#179;&#208;&#190;">
<path id="Vector" d="M42.4931 29.9618C43.1144 29.9618 43.6181 29.4581 43.6181 28.8368C43.6181 28.2155 43.1144 27.7118 42.4931 27.7118V29.9618ZM24.583 27.7118C23.9617 27.7118 23.458 28.2155 23.458 28.8368C23.458 29.4581 23.9617 29.9618 24.583 29.9618V27.7118ZM23.6655 28.1839C23.3045 28.6896 23.4217 29.3922 23.9274 29.7532C24.433 30.1143 25.1356 29.997 25.4967 29.4914L23.6655 28.1839ZM43.4067 4.40726C43.7677 3.9016 43.6505 3.19901 43.1448 2.83797C42.6392 2.47693 41.9366 2.59416 41.5756 3.09982L43.4067 4.40726ZM41.3681 47.8488C41.3681 48.4701 41.8718 48.9738 42.4931 48.9738C43.1144 48.9738 43.6181 48.4701 43.6181 47.8488H41.3681ZM43.6181 28.9095C43.6181 28.2882 43.1144 27.7845 42.4931 27.7845C41.8718 27.7845 41.3681 28.2882 41.3681 28.9095H43.6181ZM10.0843 47.1953C9.72337 47.701 9.84069 48.4036 10.3464 48.7646C10.8521 49.1255 11.5547 49.0082 11.9157 48.5025L10.0843 47.1953ZM20.2157 34.9384L19.3262 34.2497L19.3128 34.267L19.3001 34.2848L20.2157 34.9384ZM20.6699 34.3518V33.2268C20.3219 33.2268 19.9935 33.3879 19.7804 33.6631L20.6699 34.3518ZM42.4931 27.7118H24.583V29.9618H42.4931V27.7118ZM25.4967 29.4914L43.4067 4.40726L41.5756 3.09982L23.6655 28.1839L25.4967 29.4914ZM41.3681 34.3518V47.8488H43.6181V34.3518H41.3681ZM41.3681 28.9095V34.3518H43.6181V28.9095H41.3681ZM11.9157 48.5025L21.1314 35.592L19.3001 34.2848L10.0843 47.1953L11.9157 48.5025ZM20.6699 35.4768H42.4931V33.2268H20.6699V35.4768ZM21.1053 35.6271L21.5595 35.0405L19.7804 33.6631L19.3262 34.2497L21.1053 35.6271Z" fill="white"/>
</g>
</svg>
