<svg width="32" height="32" viewBox="0 0 32 32" fill="none" xmlns="http://www.w3.org/2000/svg">
<g id="Viber">
<path id="Combined Shape" fill-rule="evenodd" clip-rule="evenodd" d="M32 16C32 7.16344 24.8366 0 16 0C7.16344 0 0 7.16344 0 16C0 24.8366 7.16344 32 16 32C24.8366 32 32 24.8366 32 16ZM25.6314 21.4256C25.6946 21.5237 25.783 21.6945 25.8209 21.8052C25.903 22.0329 25.9377 22.3903 25.8935 22.5958C25.8303 22.8963 25.6061 23.2726 24.9998 24.0886C24.6335 24.5788 23.9767 25.2524 23.7115 25.4105C23.0831 25.7773 22.5494 25.7552 21.321 25.3093C19.2148 24.544 17.1843 23.4244 15.2265 21.9538C11.4782 19.1391 8.74987 15.5939 6.9215 11.1536C6.68782 10.5875 6.64994 10.4041 6.67203 9.96133C6.69732 9.42369 6.86463 9.01573 7.30041 8.44016C7.78356 7.80447 8.91408 6.89366 9.51717 6.65963C10.0888 6.4382 10.6066 6.49516 11.0108 6.82404C11.235 7.01068 12.3592 8.38956 12.8108 9.0347C13.1518 9.52489 13.6223 10.2839 13.8023 10.6318C14.036 11.0904 14.077 11.5458 13.9255 11.9917C13.8055 12.3428 13.7013 12.4598 13.0571 12.9721C12.7287 13.2377 12.4318 13.4813 12.4034 13.5129C12.375 13.5477 12.3118 13.6584 12.2645 13.7627C12.0719 14.177 12.1887 14.7432 12.6497 15.6698C13.0066 16.3909 13.4581 17.0297 14.1213 17.7539C14.6834 18.3706 15.4159 18.9937 15.9875 19.3415C16.7233 19.7906 17.6801 20.1321 18.2074 20.1354C18.4348 20.1354 18.7569 20.0436 18.9211 19.9297C18.9874 19.8855 19.2369 19.604 19.48 19.3036C20.0832 18.554 20.2726 18.3865 20.6326 18.2852C20.9674 18.1872 21.4189 18.2916 22.0284 18.6046C23.0957 19.1518 25.2335 20.8248 25.6314 21.4256Z" fill="#4594FF"/>
</g>
</svg>
