<svg width="32" height="32" viewBox="0 0 32 32" fill="none" xmlns="http://www.w3.org/2000/svg">
<g id="Telegram/white">
<path id="Subtract" fill-rule="evenodd" clip-rule="evenodd" d="M32 16C32 24.8366 24.8366 32 16 32C7.16344 32 0 24.8366 0 16C0 7.16344 7.16344 0 16 0C24.8366 0 32 7.16344 32 16ZM10.7144 14.5345C9.11163 15.2343 7.46478 15.9533 5.9589 16.7828L5.95879 16.7829C5.17247 17.3586 6.21765 17.7658 7.19809 18.1478C7.35397 18.2085 7.50821 18.2686 7.65319 18.3286C7.77383 18.3657 7.89653 18.4048 8.02086 18.4444C9.1113 18.7918 10.3272 19.1792 11.3859 18.5965C13.1249 17.5975 14.7661 16.4425 16.406 15.2885C16.9432 14.9103 17.4804 14.5323 18.0208 14.1599C18.0461 14.1437 18.0747 14.1252 18.1059 14.105C18.5663 13.8065 19.6016 13.1354 19.2187 14.0602C18.313 15.0506 17.343 15.9273 16.3677 16.8088C15.7104 17.4029 15.0507 17.9991 14.4067 18.6338C13.8458 19.0895 13.2633 20.006 13.8914 20.6442C15.338 21.6569 16.8072 22.645 18.2756 23.6326C18.7534 23.954 19.2311 24.2753 19.7079 24.5974C20.5161 25.2426 21.7791 24.7207 21.9567 23.7125C22.0358 23.2486 22.1151 22.7847 22.1945 22.3208C22.6328 19.7578 23.0714 17.1938 23.4587 14.6225C23.5114 14.2191 23.5711 13.8158 23.6308 13.4122C23.7755 12.4341 23.9205 11.4549 23.9657 10.4715C23.849 9.49023 22.6592 9.70599 21.997 9.92665C18.5936 11.2217 15.2241 12.6128 11.868 14.0284C11.4878 14.1968 11.1024 14.3651 10.7144 14.5345Z" fill="#4594FF"/>
</g>
</svg>
