<svg width="32" height="32" viewBox="0 0 32 32" fill="none" xmlns="http://www.w3.org/2000/svg">
<g id="WhatsApp">
<path id="Combined-Shape" fill-rule="evenodd" clip-rule="evenodd" d="M0 16C0 24.8366 7.16344 32 16 32C24.8366 32 32 24.8366 32 16C32 7.16344 24.8366 0 16 0C7.16344 0 0 7.16344 0 16ZM26.0414 15.3879C26.0393 20.6324 21.7729 24.8997 16.5273 24.9019H16.5234C14.9311 24.9013 13.3665 24.5018 11.9768 23.7438L6.93328 25.0669L8.28302 20.1368C7.45044 18.6939 7.01233 17.0572 7.01305 15.3804C7.01513 10.1347 11.2832 5.86687 16.5272 5.86687C19.0724 5.86797 21.4612 6.85879 23.2574 8.65715C25.0537 10.4554 26.0424 12.8458 26.0414 15.3879Z" fill="#4594FF"/>
<path id="Combined-Shape_2" fill-rule="evenodd" clip-rule="evenodd" d="M9.21771 22.8066L12.2106 22.0215L12.4994 22.1929C13.7135 22.9134 15.1053 23.2946 16.5242 23.2951H16.5274C20.8859 23.2951 24.4333 19.7477 24.4351 15.3874C24.4359 13.2744 23.6142 11.2876 22.1212 9.79291C20.6282 8.29818 18.6427 7.47461 16.5306 7.47388C12.1687 7.47388 8.62124 11.021 8.61951 15.381C8.61889 16.8752 9.03697 18.3303 9.82855 19.5893L10.0166 19.8885L9.21771 22.8066ZM20.995 17.4366C21.1608 17.5168 21.2728 17.5709 21.3206 17.6507C21.38 17.7498 21.38 18.2258 21.182 18.7811C20.9838 19.3364 20.0341 19.8432 19.5773 19.9115C19.1678 19.9727 18.6495 19.9982 18.0801 19.8173C17.7348 19.7077 17.292 19.5614 16.7248 19.3165C14.4962 18.3542 12.9901 16.1942 12.7055 15.7859C12.6855 15.7573 12.6716 15.7373 12.6638 15.7269L12.6619 15.7244C12.5361 15.5565 11.6931 14.4318 11.6931 13.2678C11.6931 12.1727 12.231 11.5988 12.4786 11.3346C12.4955 11.3165 12.5111 11.2998 12.5251 11.2846C12.743 11.0466 13.0006 10.9871 13.159 10.9871C13.3175 10.9871 13.4762 10.9885 13.6147 10.9955C13.6318 10.9964 13.6495 10.9963 13.6679 10.9961C13.8065 10.9953 13.9792 10.9943 14.1495 11.4036C14.2151 11.5611 14.311 11.7946 14.4122 12.0408C14.6167 12.5389 14.8427 13.0891 14.8825 13.1687C14.9419 13.2877 14.9815 13.4265 14.9023 13.5852C14.8904 13.609 14.8794 13.6315 14.8689 13.6529C14.8094 13.7744 14.7656 13.8638 14.6646 13.9818C14.6249 14.0281 14.5838 14.0781 14.5428 14.1281C14.461 14.2277 14.3792 14.3273 14.308 14.3983C14.189 14.5168 14.0651 14.6454 14.2038 14.8834C14.3424 15.1214 14.8195 15.8999 15.5263 16.5302C16.2859 17.2078 16.9462 17.4942 17.2809 17.6394C17.3462 17.6678 17.3992 17.6907 17.438 17.7102C17.6756 17.8292 17.8143 17.8093 17.953 17.6507C18.0917 17.492 18.5473 16.9565 18.7057 16.7185C18.8642 16.4806 19.0227 16.5202 19.2406 16.5995C19.4585 16.679 20.6273 17.254 20.865 17.373C20.9114 17.3962 20.9548 17.4172 20.995 17.4366Z" fill="#4594FF"/>
</g>
</svg>
